<svg width="200" height="50" viewBox="0 0 200 50" fill="none" xmlns="http://www.w3.org/2000/svg">
<g clip-path="url(#clip0_1_5)">
<path d="M200 0H0V50H200V0Z" fill="#F5F5F5"/>
<path d="M10.2949 34V15.3887H12.7578V31.8037H21.9238V34H10.2949ZM24.5898 18.0166V15.3887H26.875V18.0166H24.5898ZM24.5898 34V20.5176H26.875V34H24.5898ZM29.4521 29.9756L31.7119 29.6201C31.8389 30.5257 32.1901 31.2197 32.7656 31.7021C33.3496 32.1846 34.1621 32.4258 35.2031 32.4258C36.2526 32.4258 37.0312 32.2142 37.5391 31.791C38.0469 31.3594 38.3008 30.8558 38.3008 30.2803C38.3008 29.764 38.0765 29.3577 37.6279 29.0615C37.3148 28.8584 36.5361 28.6003 35.292 28.2871C33.6162 27.8639 32.4525 27.5 31.8008 27.1953C31.1576 26.8822 30.6667 26.4548 30.3281 25.9131C29.998 25.363 29.833 24.7578 29.833 24.0977C29.833 23.4967 29.9684 22.9424 30.2393 22.4346C30.5186 21.9183 30.8952 21.4909 31.3691 21.1523C31.7246 20.89 32.207 20.6699 32.8164 20.4922C33.4342 20.306 34.0944 20.2129 34.7969 20.2129C35.8548 20.2129 36.7816 20.3652 37.5771 20.6699C38.3812 20.9746 38.9736 21.3893 39.3545 21.9141C39.7354 22.4303 39.9977 23.1243 40.1416 23.9961L37.9072 24.3008C37.8057 23.6068 37.5094 23.0651 37.0186 22.6758C36.5361 22.2865 35.8506 22.0918 34.9619 22.0918C33.9124 22.0918 33.1634 22.2653 32.7148 22.6123C32.2663 22.9593 32.042 23.3656 32.042 23.8311C32.042 24.1273 32.1351 24.3939 32.3213 24.6309C32.5075 24.8763 32.7995 25.0794 33.1973 25.2402C33.4258 25.3249 34.0986 25.5195 35.2158 25.8242C36.8324 26.2559 37.958 26.6113 38.5928 26.8906C39.236 27.1615 39.7396 27.5592 40.1035 28.084C40.4674 28.6087 40.6494 29.2604 40.6494 30.0391C40.6494 30.8008 40.4251 31.5202 39.9766 32.1973C39.5365 32.8659 38.8975 33.3864 38.0596 33.7588C37.2217 34.1227 36.2738 34.3047 35.2158 34.3047C33.4639 34.3047 32.1266 33.9408 31.2041 33.2129C30.29 32.485 29.7061 31.4059 29.4521 29.9756ZM48.3555 31.9561L48.6855 33.9746C48.0423 34.11 47.4668 34.1777 46.959 34.1777C46.1296 34.1777 45.4863 34.0465 45.0293 33.7842C44.5723 33.5218 44.2507 33.179 44.0645 32.7559C43.8783 32.3242 43.7852 31.4229 43.7852 30.0518V22.2949H42.1094V20.5176H43.7852V17.1787L46.0576 15.8076V20.5176H48.3555V22.2949H46.0576V30.1787C46.0576 30.8304 46.0957 31.2493 46.1719 31.4355C46.2565 31.6217 46.3877 31.7699 46.5654 31.8799C46.7516 31.9899 47.014 32.0449 47.3525 32.0449C47.6064 32.0449 47.9408 32.0153 48.3555 31.9561ZM59.4004 32.3369C58.554 33.0563 57.7373 33.5641 56.9502 33.8604C56.1715 34.1566 55.3337 34.3047 54.4365 34.3047C52.9554 34.3047 51.8171 33.945 51.0215 33.2256C50.2259 32.4977 49.8281 31.571 49.8281 30.4453C49.8281 29.7852 49.9762 29.1842 50.2725 28.6426C50.5771 28.0924 50.9707 27.6523 51.4531 27.3223C51.944 26.9922 52.4941 26.7425 53.1035 26.5732C53.5521 26.4548 54.2292 26.3405 55.1348 26.2305C56.9798 26.0104 58.3382 25.748 59.21 25.4434C59.2184 25.1302 59.2227 24.9313 59.2227 24.8467C59.2227 23.9157 59.0068 23.2598 58.5752 22.8789C57.9912 22.3626 57.1237 22.1045 55.9727 22.1045C54.8978 22.1045 54.1022 22.2949 53.5859 22.6758C53.0781 23.0482 52.7015 23.7126 52.4561 24.6689L50.2217 24.3643C50.4248 23.4079 50.7591 22.6377 51.2246 22.0537C51.6901 21.4613 52.363 21.0085 53.2432 20.6953C54.1234 20.3737 55.1432 20.2129 56.3027 20.2129C57.4538 20.2129 58.389 20.3483 59.1084 20.6191C59.8278 20.89 60.3568 21.2327 60.6953 21.6475C61.0339 22.0537 61.2708 22.57 61.4062 23.1963C61.4824 23.5856 61.5205 24.2881 61.5205 25.3037V28.3506C61.5205 30.4749 61.5671 31.8206 61.6602 32.3877C61.7617 32.9463 61.9564 33.4837 62.2441 34H59.8574C59.6204 33.526 59.4681 32.9717 59.4004 32.3369ZM59.21 27.2334C58.3805 27.5719 57.1364 27.8597 55.4775 28.0967C54.5381 28.2321 53.8737 28.3844 53.4844 28.5537C53.0951 28.723 52.7946 28.9727 52.583 29.3027C52.3714 29.6243 52.2656 29.984 52.2656 30.3818C52.2656 30.9912 52.4941 31.499 52.9512 31.9053C53.4167 32.3115 54.0938 32.5146 54.9824 32.5146C55.8626 32.5146 56.6455 32.3242 57.3311 31.9434C58.0166 31.554 58.5202 31.0251 58.8418 30.3564C59.0872 29.8402 59.21 29.0785 59.21 28.0713V27.2334ZM81.0586 34V32.2988C80.2038 33.6361 78.9469 34.3047 77.2881 34.3047C76.2132 34.3047 75.223 34.0085 74.3174 33.416C73.4202 32.8236 72.722 31.9984 72.2227 30.9404C71.7318 29.874 71.4863 28.651 71.4863 27.2715C71.4863 25.9258 71.7106 24.707 72.1592 23.6152C72.6077 22.515 73.2806 21.6729 74.1777 21.0889C75.0749 20.5049 76.0778 20.2129 77.1865 20.2129C77.999 20.2129 78.7227 20.3864 79.3574 20.7334C79.9922 21.0719 80.5085 21.5163 80.9062 22.0664V15.3887H83.1787V34H81.0586ZM73.835 27.2715C73.835 28.998 74.1989 30.2887 74.9268 31.1436C75.6546 31.9984 76.5137 32.4258 77.5039 32.4258C78.5026 32.4258 79.349 32.0195 80.043 31.207C80.7454 30.3861 81.0967 29.1377 81.0967 27.4619C81.0967 25.6169 80.7412 24.2627 80.0303 23.3994C79.3193 22.5361 78.4434 22.1045 77.4023 22.1045C76.3867 22.1045 75.5361 22.5192 74.8506 23.3486C74.1735 24.1781 73.835 25.4857 73.835 27.2715ZM96.0137 29.6582L98.375 29.9502C98.0026 31.3298 97.3128 32.4004 96.3057 33.1621C95.2985 33.9238 94.012 34.3047 92.4463 34.3047C90.4743 34.3047 88.9085 33.6995 87.749 32.4893C86.598 31.2705 86.0225 29.5651 86.0225 27.373C86.0225 25.1048 86.6064 23.3444 87.7744 22.0918C88.9424 20.8392 90.4574 20.2129 92.3193 20.2129C94.1221 20.2129 95.5947 20.8265 96.7373 22.0537C97.8799 23.2809 98.4512 25.0075 98.4512 27.2334C98.4512 27.3688 98.4469 27.5719 98.4385 27.8428H88.3838C88.4684 29.3239 88.8874 30.458 89.6406 31.2451C90.3939 32.0322 91.3333 32.4258 92.459 32.4258C93.2969 32.4258 94.012 32.2057 94.6045 31.7656C95.1969 31.3255 95.6667 30.623 96.0137 29.6582ZM88.5107 25.9639H96.0391C95.9375 24.8298 95.6497 23.9792 95.1758 23.4121C94.4479 22.5319 93.5042 22.0918 92.3447 22.0918C91.2952 22.0918 90.4108 22.443 89.6914 23.1455C88.9805 23.848 88.5869 24.7874 88.5107 25.9639ZM113.038 34V17.585H106.906V15.3887H121.658V17.585H115.501V34H113.038ZM129.809 32.3369C128.962 33.0563 128.146 33.5641 127.358 33.8604C126.58 34.1566 125.742 34.3047 124.845 34.3047C123.364 34.3047 122.225 33.945 121.43 33.2256C120.634 32.4977 120.236 31.571 120.236 30.4453C120.236 29.7852 120.384 29.1842 120.681 28.6426C120.985 28.0924 121.379 27.6523 121.861 27.3223C122.352 26.9922 122.902 26.7425 123.512 26.5732C123.96 26.4548 124.637 26.3405 125.543 26.2305C127.388 26.0104 128.746 25.748 129.618 25.4434C129.627 25.1302 129.631 24.9313 129.631 24.8467C129.631 23.9157 129.415 23.2598 128.983 22.8789C128.399 22.3626 127.532 22.1045 126.381 22.1045C125.306 22.1045 124.51 22.2949 123.994 22.6758C123.486 23.0482 123.11 23.7126 122.864 24.6689L120.63 24.3643C120.833 23.4079 121.167 22.6377 121.633 22.0537C122.098 21.4613 122.771 21.0085 123.651 20.6953C124.532 20.3737 125.551 20.2129 126.711 20.2129C127.862 20.2129 128.797 20.3483 129.517 20.6191C130.236 20.89 130.765 21.2327 131.104 21.6475C131.442 22.0537 131.679 22.57 131.814 23.1963C131.891 23.5856 131.929 24.2881 131.929 25.3037V28.3506C131.929 30.4749 131.975 31.8206 132.068 32.3877C132.17 32.9463 132.365 33.4837 132.652 34H130.266C130.029 33.526 129.876 32.9717 129.809 32.3369ZM129.618 27.2334C128.789 27.5719 127.545 27.8597 125.886 28.0967C124.946 28.2321 124.282 28.3844 123.893 28.5537C123.503 28.723 123.203 28.9727 122.991 29.3027C122.78 29.6243 122.674 29.984 122.674 30.3818C122.674 30.9912 122.902 31.499 123.359 31.9053C123.825 32.3115 124.502 32.5146 125.391 32.5146C126.271 32.5146 127.054 32.3242 127.739 31.9434C128.425 31.554 128.928 31.0251 129.25 30.3564C129.495 29.8402 129.618 29.0785 129.618 28.0713V27.2334ZM135.458 34V20.5176H137.515V22.5615C138.039 21.6051 138.522 20.9746 138.962 20.6699C139.41 20.3652 139.901 20.2129 140.435 20.2129C141.205 20.2129 141.988 20.4583 142.783 20.9492L141.996 23.0693C141.438 22.7393 140.879 22.5742 140.32 22.5742C139.821 22.5742 139.372 22.7266 138.975 23.0312C138.577 23.3275 138.293 23.7422 138.124 24.2754C137.87 25.0879 137.743 25.9766 137.743 26.9414V34H135.458ZM153.371 29.6582L155.732 29.9502C155.36 31.3298 154.67 32.4004 153.663 33.1621C152.656 33.9238 151.369 34.3047 149.804 34.3047C147.832 34.3047 146.266 33.6995 145.106 32.4893C143.955 31.2705 143.38 29.5651 143.38 27.373C143.38 25.1048 143.964 23.3444 145.132 22.0918C146.3 20.8392 147.815 20.2129 149.677 20.2129C151.479 20.2129 152.952 20.8265 154.095 22.0537C155.237 23.2809 155.809 25.0075 155.809 27.2334C155.809 27.3688 155.804 27.5719 155.796 27.8428H145.741C145.826 29.3239 146.245 30.458 146.998 31.2451C147.751 32.0322 148.691 32.4258 149.816 32.4258C150.654 32.4258 151.369 32.2057 151.962 31.7656C152.554 31.3255 153.024 30.623 153.371 29.6582ZM145.868 25.9639H153.396C153.295 24.8298 153.007 23.9792 152.533 23.4121C151.805 22.5319 150.862 22.0918 149.702 22.0918C148.653 22.0918 147.768 22.443 147.049 23.1455C146.338 23.848 145.944 24.7874 145.868 25.9639ZM159.16 34V22.2949H157.142V20.5176H159.16V19.083C159.16 18.1774 159.241 17.5046 159.401 17.0645C159.621 16.472 160.007 15.9938 160.557 15.6299C161.115 15.2575 161.894 15.0713 162.893 15.0713C163.536 15.0713 164.247 15.1475 165.025 15.2998L164.683 17.293C164.209 17.2083 163.76 17.166 163.337 17.166C162.643 17.166 162.152 17.3141 161.864 17.6104C161.576 17.9066 161.433 18.4609 161.433 19.2734V20.5176H164.061V22.2949H161.433V34H159.16ZM174.648 32.3369C173.802 33.0563 172.985 33.5641 172.198 33.8604C171.42 34.1566 170.582 34.3047 169.685 34.3047C168.203 34.3047 167.065 33.945 166.27 33.2256C165.474 32.4977 165.076 31.571 165.076 30.4453C165.076 29.7852 165.224 29.1842 165.521 28.6426C165.825 28.0924 166.219 27.6523 166.701 27.3223C167.192 26.9922 167.742 26.7425 168.352 26.5732C168.8 26.4548 169.477 26.3405 170.383 26.2305C172.228 26.0104 173.586 25.748 174.458 25.4434C174.466 25.1302 174.471 24.9313 174.471 24.8467C174.471 23.9157 174.255 23.2598 173.823 22.8789C173.239 22.3626 172.372 22.1045 171.221 22.1045C170.146 22.1045 169.35 22.2949 168.834 22.6758C168.326 23.0482 167.95 23.7126 167.704 24.6689L165.47 24.3643C165.673 23.4079 166.007 22.6377 166.473 22.0537C166.938 21.4613 167.611 21.0085 168.491 20.6953C169.371 20.3737 170.391 20.2129 171.551 20.2129C172.702 20.2129 173.637 20.3483 174.356 20.6191C175.076 20.89 175.605 21.2327 175.943 21.6475C176.282 22.0537 176.519 22.57 176.654 23.1963C176.73 23.5856 176.769 24.2881 176.769 25.3037V28.3506C176.769 30.4749 176.815 31.8206 176.908 32.3877C177.01 32.9463 177.204 33.4837 177.492 34H175.105C174.868 33.526 174.716 32.9717 174.648 32.3369ZM174.458 27.2334C173.629 27.5719 172.384 27.8597 170.726 28.0967C169.786 28.2321 169.122 28.3844 168.732 28.5537C168.343 28.723 168.043 28.9727 167.831 29.3027C167.619 29.6243 167.514 29.984 167.514 30.3818C167.514 30.9912 167.742 31.499 168.199 31.9053C168.665 32.3115 169.342 32.5146 170.23 32.5146C171.111 32.5146 171.894 32.3242 172.579 31.9434C173.265 31.554 173.768 31.0251 174.09 30.3564C174.335 29.8402 174.458 29.0785 174.458 28.0713V27.2334ZM179.409 29.9756L181.669 29.6201C181.796 30.5257 182.147 31.2197 182.723 31.7021C183.307 32.1846 184.119 32.4258 185.16 32.4258C186.21 32.4258 186.988 32.2142 187.496 31.791C188.004 31.3594 188.258 30.8558 188.258 30.2803C188.258 29.764 188.034 29.3577 187.585 29.0615C187.272 28.8584 186.493 28.6003 185.249 28.2871C183.573 27.8639 182.41 27.5 181.758 27.1953C181.115 26.8822 180.624 26.4548 180.285 25.9131C179.955 25.363 179.79 24.7578 179.79 24.0977C179.79 23.4967 179.925 22.9424 180.196 22.4346C180.476 21.9183 180.852 21.4909 181.326 21.1523C181.682 20.89 182.164 20.6699 182.773 20.4922C183.391 20.306 184.051 20.2129 184.754 20.2129C185.812 20.2129 186.739 20.3652 187.534 20.6699C188.338 20.9746 188.931 21.3893 189.312 21.9141C189.692 22.4303 189.955 23.1243 190.099 23.9961L187.864 24.3008C187.763 23.6068 187.466 23.0651 186.976 22.6758C186.493 22.2865 185.808 22.0918 184.919 22.0918C183.869 22.0918 183.12 22.2653 182.672 22.6123C182.223 22.9593 181.999 23.3656 181.999 23.8311C181.999 24.1273 182.092 24.3939 182.278 24.6309C182.465 24.8763 182.757 25.0794 183.154 25.2402C183.383 25.3249 184.056 25.5195 185.173 25.8242C186.789 26.2559 187.915 26.6113 188.55 26.8906C189.193 27.1615 189.697 27.5592 190.061 28.084C190.424 28.6087 190.606 29.2604 190.606 30.0391C190.606 30.8008 190.382 31.5202 189.934 32.1973C189.493 32.8659 188.854 33.3864 188.017 33.7588C187.179 34.1227 186.231 34.3047 185.173 34.3047C183.421 34.3047 182.084 33.9408 181.161 33.2129C180.247 32.485 179.663 31.4059 179.409 29.9756Z" fill="black"/>
</g>
<defs>
<clipPath id="clip0_1_5">
<rect width="200" height="50" fill="white"/>
</clipPath>
</defs>
</svg>
